<svg style="display: none;">
  <defs>
    <symbol id="icon-pencil">
      <path d="M13.586 3.586a2 2 0 112.828 2.828l-.793.793-2.828-2.828.793-.793zM11.379 5.793L3 14.172V17h2.828l8.38-8.379-2.83-2.828z"/>
    </symbol>
    <symbol id="icon-user">
      <path fill-rule="evenodd" d="M10 9a3 3 0 100-6 3 3 0 000 6zm-7 9a7 7 0 1114 0H3z" clip-rule="evenodd"/>
    </symbol>
    <symbol id="icon-logout">
      <path fill-rule="evenodd"
            d="M3 3a1 1 0 00-1 1v12a1 1 0 102 0V4a1 1 0 00-1-1zm10.293 9.293a1 1 0 001.414 1.414l3-3a1 1 0 000-1.414l-3-3a1 1 0 10-1.414 1.414L14.586 9H7a1 1 0 100 2h7.586l-1.293 1.293z"
            clip-rule="evenodd"/>
    </symbol>
    <symbol id="icon-x">
      <path fill-rule="evenodd"
            d="M4.293 4.293a1 1 0 011.414 0L10 8.586l4.293-4.293a1 1 0 111.414 1.414L11.414 10l4.293 4.293a1 1 0 01-1.414 1.414L10 11.414l-4.293 4.293a1 1 0 01-1.414-1.414L8.586 10 4.293 5.707a1 1 0 010-1.414z"
            clip-rule="evenodd"/>
    </symbol>
    <symbol id="icon-add">
      <path fill-rule="evenodd"
            d="M10 5a1 1 0 011 1v3h3a1 1 0 110 2h-3v3a1 1 0 11-2 0v-3H6a1 1 0 110-2h3V6a1 1 0 011-1z"
            clip-rule="evenodd"/>
    </symbol>
  </defs>
</svg>