<?xml version="1.0" standalone="no"?>
<!DOCTYPE svg PUBLIC "-//W3C//DTD SVG 20010904//EN"
 "http://www.w3.org/TR/2001/REC-SVG-20010904/DTD/svg10.dtd">
<svg version="1.0" xmlns="http://www.w3.org/2000/svg"
 width="700.000000pt" height="700.000000pt" viewBox="0 0 700.000000 700.000000"
 preserveAspectRatio="xMidYMid meet">
<metadata>
Created by potrace 1.14, written by Peter Selinger 2001-2017
</metadata>
<g transform="translate(0.000000,700.000000) scale(0.100000,-0.100000)"
fill="#000000" stroke="none">
<path d="M4565 5302 c-71 -25 -134 -64 -181 -114 -35 -36 -2344 -3487 -2344
-3503 0 -3 166 -5 369 -5 l370 0 25 33 c37 49 569 878 1077 1679 l454 717 3
-1215 2 -1214 313 2 312 3 0 1715 0 1715 -23 50 c-49 106 -129 155 -252 155
-45 -1 -95 -8 -125 -18z"/>
</g>
</svg>
