<?xml version="1.0" encoding="utf-8"?>
<!-- Generator: Adobe Illustrator 25.2.1, SVG Export Plug-In . SVG Version: 6.00 Build 0)  -->
<svg version="1.1" id="Camada_1" xmlns="http://www.w3.org/2000/svg" xmlns:xlink="http://www.w3.org/1999/xlink" x="0px"
     y="0px"
     viewBox="0 0 100 100" style="enable-background:new 0 0 100 100;" xml:space="preserve">
<style type="text/css">
	.st0{fill:#F59403;}
</style>
  <path id="Caminho_6048" class="st0" d="M62,41.1c-0.1,0.1-0.2,0.2-0.2,0.3C55.3,51.6,49,61.7,42.5,71.7c-0.8,1.3-1.7,2.7-2.6,4
	c-0.1,0.2-0.3,0.3-0.5,0.3H29.1c0.2-0.3,0.4-0.7,0.7-1L46,50.7c5.3-7.9,10.5-15.8,15.8-23.7c1.1-1.9,3.2-3,5.4-3
	c1.9,0,3.6,1.5,3.6,3.4c0.1,0.4,0.1,0.8,0.1,1.2v46.8c0,0.6,0,0.6-0.6,0.6h-7.8C62,76,62,76,62,75.5L62,41.1
	C62.1,41.2,62,41.1,62,41.1z"/>
</svg>
